# xmcd
#
# Track frame offsets:
# 150
# 13168
# 29880
# 59342
# 75318
# 77365
# 102664
# 117399
# 120624
# 136504
# 169079
# 170184
# 196651
# 224594
#
# Disc length: 3399 seconds
#
# Revision: 0
# Processed by: cddbd v1.4PL0 Copyright (c) Steve Scherf et al.
# Submitted via: Audion 3.0.2 (http://www.panic.com/audion/)
#
DISCID=bf0d450e
DTITLE=diverse Musiker - Triphopmix
DYEAR=1900
DGENRE=
TTITLE0=Triphopmix01
TTITLE1=Triphopmix02
TTITLE2=Triphopmix03
TTITLE3=Triphopmix04
TTITLE4=Triphopmix05
TTITLE5=Triphopmix06
TTITLE6=Triphopmix07
TTITLE7=Triphopmix08
TTITLE8=Triphopmix09
TTITLE9=Triphopmix10
TTITLE10=Triphopmix11
TTITLE11=Triphopmix12
TTITLE12=Triphopmix12
TTITLE13=Triphopmix14
EXTD=
EXTT0=
EXTT1=
EXTT2=
EXTT3=
EXTT4=
EXTT5=
EXTT6=
EXTT7=
EXTT8=
EXTT9=
EXTT10=
EXTT11=
EXTT12=
EXTT13=
PLAYORDER=
